PathFileType  4	(X/Y/Z) C:\Users\antoi\Documents\MyRepositories\mobilecap\ResultsAnalysis
DataRate	CameraRate	NumFrames	NumMarkers	Units	OrigDataRate	OrigDataStartFrame	OrigNumFrames
100.0	100.0	4	51	mm	100.0	148	197
Frame#	Time	r_knee			r_shank_antsup			r_ankle			r_calc			r_5meta			r_toe			L_knee			L_shank_antsup			L_ankle			L_calc			L_5meta			L_toe			r_sh2			r_sh3			r_sh4			L_sh2			L_sh3			r_thigh1			r_thigh2			r_thigh3			r_thigh4			r_thigh5			L_thigh1			L_thigh2			L_thigh3			L_thigh4			r.ASIS			r.PSIS			L.ASIS			L.PSIS			C7			R_Shoulder			L_Shoulder			R_Sternum			L_Sternum			R_humerus			R_elbow_med			R_elbow_lat			R_forearm			R_wrist_radius			R_wrist_ulna			L_humerus			L_elbow_med			L_elbow_lat			L_forearm			L_wrist_radius			L_wrist_ulna			R_HJC			L_HJC			R_HJC_reg			L_HJC_reg			
		X1	Y1	Z1	X2	Y2	Z2	X3	Y3	Z3	X4	Y4	Z4	X5	Y5	Z5	X6	Y6	Z6	X7	Y7	Z7	X8	Y8	Z8	X9	Y9	Z9	X10	Y10	Z10	X11	Y11	Z11	X12	Y12	Z12	X13	Y13	Z13	X14	Y14	Z14	X15	Y15	Z15	X16	Y16	Z16	X17	Y17	Z17	X18	Y18	Z18	X19	Y19	Z19	X20	Y20	Z20	X21	Y21	Z21	X22	Y22	Z22	X23	Y23	Z23	X24	Y24	Z24	X25	Y25	Z25	X26	Y26	Z26	X27	Y27	Z27	X28	Y28	Z28	X29	Y29	Z29	X30	Y30	Z30	X31	Y31	Z31	X32	Y32	Z32	X33	Y33	Z33	X34	Y34	Z34	X35	Y35	Z35	X36	Y36	Z36	X37	Y37	Z37	X38	Y38	Z38	X39	Y39	Z39	X40	Y40	Z40	X41	Y41	Z41	X42	Y42	Z42	X43	Y43	Z43	X44	Y44	Z44	X45	Y45	Z45	X46	Y46	Z46	X47	Y47	Z47	X48	Y48	Z48	X49	Y49	Z49	X50	Y50	Z50	X51	Y51	Z51	

148	1.47000000	1056.60218	500.73138	-73.43977	1084.63844	430.87997	-75.52809	934.78034	133.23542	-125.50151	879.71631	125.45608	-180.56610	1021.10203	54.21774	-97.85262	1073.59812	73.66491	-140.01650	921.16839	466.29565	-355.96054	948.66068	380.73785	-337.10795	849.38714	86.60912	-343.34364	785.35131	54.71334	-307.70944	954.93869	41.87877	-353.96082	994.74906	56.64088	-292.07196	1037.56743	329.05612	-79.77021	1017.46509	460.56175	-53.91608	960.28281	359.13309	-66.16990	876.73040	404.85820	-388.78697	855.21631	284.60341	-395.91199	999.99078	745.14827	-38.31144	1049.89123	642.84140	-44.86572	1000.48389	595.14091	-50.88073	900.51868	698.00075	-60.63551	953.83083	598.99627	-76.31876	993.60444	736.67410	-410.94852	983.47773	600.38510	-380.78097	882.83782	737.02732	-428.00321	866.25952	611.21106	-377.02795	1002.06629	933.62417	-122.27513	804.90950	973.12197	-219.45868	1032.73374	920.00408	-338.79920	818.89777	970.71023	-299.83214	956.46603	1361.74302	-389.88510	1005.36254	1399.54527	-240.31141	1005.56401	1264.40554	-492.14638	1071.16525	1303.56130	-329.17304	1070.08178	1284.79590	-363.72346	993.67609	1320.29934	-133.33873	841.83461	1164.54547	-77.33418	882.26650	1180.99742	-25.81220	928.27944	1104.13839	8.47656	940.14474	965.27189	50.33496	913.73382	975.65464	75.82362	1015.79647	1146.75783	-522.95686	964.22267	937.27009	-450.34818	998.36607	943.23669	-508.77659	1077.27021	871.62116	-488.01347	1142.22189	773.23100	-437.81964	1114.08048	751.58295	-459.28640	915.13562	851.96088	-132.60174	941.30115	843.00197	-338.25892	930.06918	865.69191	-163.06182	954.85258	861.41943	-305.46950	
149	1.48000000	1068.35358	500.67365	-75.22658	1099.07433	432.17873	-77.09685	964.18284	126.57206	-122.83977	909.05770	115.54912	-177.07807	1054.88605	52.43544	-95.04206	1106.11522	74.20669	-137.88292	924.49055	466.12982	-355.87437	951.05505	380.26836	-337.11572	849.87707	86.93307	-343.23843	785.46177	55.24337	-307.58322	955.19760	41.79865	-353.93263	995.48629	56.61528	-292.12984	1057.26880	328.15378	-79.74836	1030.87548	458.65421	-55.00944	978.69276	354.39299	-65.61138	879.51238	405.09869	-388.67937	857.05550	285.01260	-395.76804	1010.48152	744.88769	-38.97069	1060.74236	642.84505	-46.48373	1011.46092	594.88756	-51.98008	911.00411	697.37076	-60.53978	964.42453	598.69962	-77.21203	1000.23279	735.84955	-410.76366	988.61253	599.69163	-380.44420	889.47597	737.46538	-427.95444	871.44961	612.01129	-376.80177	1011.39513	932.93406	-122.28152	813.73031	972.89211	-218.72855	1041.01256	919.19850	-338.98484	827.41060	970.63548	-299.13709	965.26843	1361.78512	-388.63744	1014.68157	1398.75164	-238.96400	1014.13797	1264.63859	-491.41635	1080.25404	1303.06514	-328.48382	1078.86809	1284.35625	-363.08810	1003.51767	1318.90688	-132.35290	852.04572	1162.83794	-76.34891	892.62724	1179.11507	-24.94550	938.79437	1102.20668	9.00842	950.91894	963.15503	50.45406	924.59518	973.47378	76.01118	1024.05894	1147.01691	-522.52752	971.82537	937.53588	-450.75556	1006.46822	943.46749	-508.92263	1085.20005	871.73361	-487.90017	1149.94764	773.47552	-437.47112	1122.24025	751.94091	-458.62098	924.08125	851.49941	-132.30476	949.34955	842.48625	-338.07125	939.01890	864.89311	-162.95393	963.26818	860.89336	-305.48866	
150	1.49000000	1079.51361	500.33677	-77.06692	1113.09073	433.51200	-78.80355	993.76584	120.53070	-120.25874	938.67882	106.31849	-173.59894	1088.56997	51.48750	-92.59481	1138.47988	75.61585	-136.21148	927.81971	466.10891	-355.85062	953.40042	379.93141	-337.18448	850.22575	87.37945	-343.20942	785.60068	55.79435	-307.48780	955.34874	41.78618	-353.94170	996.26021	56.77089	-292.22512	1076.64073	327.51276	-79.86968	1043.87979	456.63404	-56.17870	996.96320	349.78237	-65.06205	882.20572	405.43594	-388.64799	858.78095	285.52024	-395.70195	1020.69920	744.34642	-39.69090	1071.15338	642.47878	-48.15543	1021.88396	594.34905	-53.29225	921.15945	696.62727	-60.80196	974.63794	598.16382	-78.57671	1006.86130	735.12009	-410.61945	993.72294	599.11623	-380.14295	896.22069	737.84698	-427.96879	876.76884	612.72281	-376.66677	1020.82864	932.22826	-122.32214	822.63886	972.51781	-217.88053	1049.29911	918.50434	-339.19371	835.99585	970.45350	-298.34003	974.13729	1361.74424	-387.19813	1023.99828	1397.91520	-237.43353	1022.69329	1264.90935	-490.55097	1089.41197	1302.66606	-327.64219	1087.70949	1284.03158	-362.30344	1013.34544	1317.46609	-131.21576	862.26390	1160.97959	-75.38814	902.93270	1177.08372	-24.04964	949.26218	1100.12475	9.52849	961.74193	960.94475	50.46141	935.42357	971.12676	76.11928	1032.26041	1147.32263	-522.02149	979.35717	937.76384	-451.18166	1014.43289	943.71143	-509.08087	1092.96242	871.89976	-487.87264	1157.52209	773.67223	-437.32178	1130.08046	752.26797	-458.09795	933.23150	850.94883	-132.01295	957.50717	841.99674	-337.90119	948.10920	864.05640	-162.88129	971.79010	860.39649	-305.52989	
151	1.50000000	1090.10255	499.70014	-78.91441	1126.69008	434.85367	-80.60371	1023.43642	115.17863	-117.82942	968.51190	97.82965	-170.22868	1122.01333	51.40503	-90.56369	1170.51388	77.87697	-135.01611	931.17244	466.22304	-355.89287	955.73297	379.73511	-337.31241	850.43872	87.93829	-343.24177	785.76551	56.34956	-307.42614	955.37675	41.82623	-353.98731	996.96782	57.02470	-292.34319	1095.65191	327.11053	-80.14088	1056.50347	454.48205	-57.37634	1015.05974	345.31382	-64.55154	884.81499	405.85005	-388.68688	860.39861	286.11480	-395.71246	1030.62346	743.50352	-40.45561	1081.12882	641.72759	-49.83870	1031.76964	593.50846	-54.77157	930.96937	695.74883	-61.35915	984.48104	597.40073	-80.22464	1013.48068	734.44817	-410.52654	998.80993	598.63596	-379.90286	903.05995	738.15240	-428.02930	882.19055	613.31474	-376.58019	1030.35210	931.48043	-122.40586	831.65008	971.97511	-216.92317	1057.60289	917.90865	-339.42647	844.66700	970.13339	-297.44611	983.07986	1361.60393	-385.56400	1033.31544	1397.02130	-235.72019	1031.22161	1265.21217	-489.55100	1098.62150	1302.34799	-326.64211	1096.60609	1283.80657	-361.36697	1023.14475	1315.97019	-129.92058	872.43632	1159.01293	-74.43783	913.16939	1174.91141	-23.11232	959.69143	1097.90181	10.03420	972.60567	958.64755	50.35515	946.21918	968.61874	76.15124	1040.39786	1147.67487	-521.43846	986.87797	937.93100	-451.59705	1022.26225	943.96745	-509.23914	1100.56469	872.11397	-487.91867	1164.94197	773.79125	-437.35539	1137.57566	752.53243	-457.79705	942.58759	850.27986	-131.73825	965.78746	841.51489	-337.75820	957.33747	863.17445	-162.84523	980.41385	859.90897	-305.59075	
